<mxfile host="65bd71144e">
    <diagram name="OFFICIAL" id="WPrVbN8F6kpwLPXb7TRT">
        <mxGraphModel dx="1739" dy="1648" grid="1" gridSize="10" guides="1" tooltips="1" connect="1" arrows="1" fold="1" page="1" pageScale="1" pageWidth="850" pageHeight="1100" math="0" shadow="0">
            <root>
                <mxCell id="2bBxNphbNZEI2jO6cIMc-0"/>
                <mxCell id="2bBxNphbNZEI2jO6cIMc-1" parent="2bBxNphbNZEI2jO6cIMc-0"/>
                <mxCell id="ydddiZWCEUi1fbIrvHAK-1" value="counterGreen&lt;br&gt;==0" style="edgeStyle=orthogonalEdgeStyle;html=1;" parent="2bBxNphbNZEI2jO6cIMc-1" source="2bBxNphbNZEI2jO6cIMc-5" target="2bBxNphbNZEI2jO6cIMc-11" edge="1">
                    <mxGeometry relative="1" as="geometry"/>
                </mxCell>
                <mxCell id="ydddiZWCEUi1fbIrvHAK-19" style="edgeStyle=orthogonalEdgeStyle;html=1;" parent="2bBxNphbNZEI2jO6cIMc-1" source="2bBxNphbNZEI2jO6cIMc-5" edge="1">
                    <mxGeometry relative="1" as="geometry">
                        <mxPoint x="600" y="-840" as="targetPoint"/>
                    </mxGeometry>
                </mxCell>
                <mxCell id="ydddiZWCEUi1fbIrvHAK-23" value="isPress(MODE)" style="edgeStyle=orthogonalEdgeStyle;jumpSize=0;html=1;entryX=0;entryY=0.5;entryDx=0;entryDy=0;" parent="2bBxNphbNZEI2jO6cIMc-1" source="2bBxNphbNZEI2jO6cIMc-5" target="ydddiZWCEUi1fbIrvHAK-10" edge="1">
                    <mxGeometry x="0.25" y="10" relative="1" as="geometry">
                        <mxPoint as="offset"/>
                        <mxPoint x="680" y="-840" as="targetPoint"/>
                    </mxGeometry>
                </mxCell>
                <mxCell id="2bBxNphbNZEI2jO6cIMc-5" value="&lt;span style=&quot;font-size: 10px;&quot;&gt;AUTO&lt;br&gt;GREEN&lt;br&gt;&lt;/span&gt;" style="ellipse;whiteSpace=wrap;html=1;aspect=fixed;fillColor=#d5e8d4;strokeColor=#82b366;" parent="2bBxNphbNZEI2jO6cIMc-1" vertex="1">
                    <mxGeometry x="480" y="-880" width="80" height="80" as="geometry"/>
                </mxCell>
                <mxCell id="ydddiZWCEUi1fbIrvHAK-7" value="counterRed&lt;br&gt;==0" style="edgeStyle=orthogonalEdgeStyle;html=1;exitX=0;exitY=0.5;exitDx=0;exitDy=0;" parent="2bBxNphbNZEI2jO6cIMc-1" source="2bBxNphbNZEI2jO6cIMc-7" target="2bBxNphbNZEI2jO6cIMc-5" edge="1">
                    <mxGeometry x="0.0429" relative="1" as="geometry">
                        <Array as="points">
                            <mxPoint x="440" y="-520"/>
                            <mxPoint x="440" y="-810"/>
                        </Array>
                        <mxPoint as="offset"/>
                    </mxGeometry>
                </mxCell>
                <mxCell id="ydddiZWCEUi1fbIrvHAK-22" style="edgeStyle=orthogonalEdgeStyle;jumpSize=0;html=1;" parent="2bBxNphbNZEI2jO6cIMc-1" source="2bBxNphbNZEI2jO6cIMc-7" edge="1">
                    <mxGeometry relative="1" as="geometry">
                        <mxPoint x="600" y="-520" as="targetPoint"/>
                    </mxGeometry>
                </mxCell>
                <mxCell id="2bBxNphbNZEI2jO6cIMc-7" value="&lt;font style=&quot;font-size: 10px;&quot;&gt;AUTO&lt;br&gt;RED&lt;br&gt;&lt;/font&gt;" style="ellipse;whiteSpace=wrap;html=1;aspect=fixed;fillColor=#f8cecc;strokeColor=#b85450;" parent="2bBxNphbNZEI2jO6cIMc-1" vertex="1">
                    <mxGeometry x="480" y="-560" width="80" height="80" as="geometry"/>
                </mxCell>
                <mxCell id="ydddiZWCEUi1fbIrvHAK-2" value="counteerYellow&lt;br&gt;==0" style="edgeStyle=orthogonalEdgeStyle;html=1;entryX=0.5;entryY=0;entryDx=0;entryDy=0;" parent="2bBxNphbNZEI2jO6cIMc-1" source="2bBxNphbNZEI2jO6cIMc-11" target="2bBxNphbNZEI2jO6cIMc-7" edge="1">
                    <mxGeometry relative="1" as="geometry"/>
                </mxCell>
                <mxCell id="ydddiZWCEUi1fbIrvHAK-15" style="edgeStyle=orthogonalEdgeStyle;html=1;" parent="2bBxNphbNZEI2jO6cIMc-1" source="2bBxNphbNZEI2jO6cIMc-11" edge="1">
                    <mxGeometry relative="1" as="geometry">
                        <mxPoint x="600" y="-680" as="targetPoint"/>
                    </mxGeometry>
                </mxCell>
                <mxCell id="2bBxNphbNZEI2jO6cIMc-11" value="&lt;span style=&quot;font-size: 10px;&quot;&gt;AUTO&lt;br&gt;YELLOW&lt;br&gt;&lt;/span&gt;" style="ellipse;whiteSpace=wrap;html=1;aspect=fixed;fillColor=#fff2cc;strokeColor=#d6b656;" parent="2bBxNphbNZEI2jO6cIMc-1" vertex="1">
                    <mxGeometry x="480" y="-720" width="80" height="80" as="geometry"/>
                </mxCell>
                <mxCell id="6p3wwFVNoCFUn8sR4JEn-98" style="edgeStyle=none;html=1;entryX=0;entryY=0;entryDx=0;entryDy=0;endArrow=classic;endFill=1;" edge="1" parent="2bBxNphbNZEI2jO6cIMc-1" source="ydddiZWCEUi1fbIrvHAK-8" target="2bBxNphbNZEI2jO6cIMc-5">
                    <mxGeometry relative="1" as="geometry"/>
                </mxCell>
                <mxCell id="ydddiZWCEUi1fbIrvHAK-8" value="INIT" style="rounded=0;whiteSpace=wrap;html=1;fillColor=#dae8fc;strokeColor=#6c8ebf;" parent="2bBxNphbNZEI2jO6cIMc-1" vertex="1">
                    <mxGeometry x="330" y="-890" width="80" height="40" as="geometry"/>
                </mxCell>
                <mxCell id="ydddiZWCEUi1fbIrvHAK-25" value="isPress(COLOR)" style="edgeStyle=orthogonalEdgeStyle;jumpSize=0;html=1;" parent="2bBxNphbNZEI2jO6cIMc-1" source="ydddiZWCEUi1fbIrvHAK-10" target="ydddiZWCEUi1fbIrvHAK-11" edge="1">
                    <mxGeometry relative="1" as="geometry"/>
                </mxCell>
                <mxCell id="6p3wwFVNoCFUn8sR4JEn-81" value="isPress(MODE)" style="edgeStyle=none;html=1;entryX=0;entryY=0.5;entryDx=0;entryDy=0;endArrow=classic;endFill=1;" edge="1" parent="2bBxNphbNZEI2jO6cIMc-1" source="ydddiZWCEUi1fbIrvHAK-10" target="ydddiZWCEUi1fbIrvHAK-28">
                    <mxGeometry x="0.4286" y="10" relative="1" as="geometry">
                        <Array as="points">
                            <mxPoint x="880" y="-840"/>
                        </Array>
                        <mxPoint as="offset"/>
                    </mxGeometry>
                </mxCell>
                <mxCell id="ydddiZWCEUi1fbIrvHAK-10" value="&lt;span style=&quot;font-size: 10px;&quot;&gt;MANUAL&lt;br&gt;GREEN&lt;br&gt;&lt;/span&gt;" style="ellipse;whiteSpace=wrap;html=1;aspect=fixed;fillColor=#d5e8d4;strokeColor=#82b366;" parent="2bBxNphbNZEI2jO6cIMc-1" vertex="1">
                    <mxGeometry x="720" y="-880" width="80" height="80" as="geometry"/>
                </mxCell>
                <mxCell id="ydddiZWCEUi1fbIrvHAK-26" value="isPress(COLOR)" style="edgeStyle=orthogonalEdgeStyle;jumpSize=0;html=1;" parent="2bBxNphbNZEI2jO6cIMc-1" source="ydddiZWCEUi1fbIrvHAK-11" target="ydddiZWCEUi1fbIrvHAK-12" edge="1">
                    <mxGeometry relative="1" as="geometry"/>
                </mxCell>
                <mxCell id="ydddiZWCEUi1fbIrvHAK-11" value="&lt;span style=&quot;font-size: 10px;&quot;&gt;MANUAL&lt;br&gt;YELLOW&lt;br&gt;&lt;/span&gt;" style="ellipse;whiteSpace=wrap;html=1;aspect=fixed;fillColor=#fff2cc;strokeColor=#d6b656;" parent="2bBxNphbNZEI2jO6cIMc-1" vertex="1">
                    <mxGeometry x="720" y="-720" width="80" height="80" as="geometry"/>
                </mxCell>
                <mxCell id="ydddiZWCEUi1fbIrvHAK-27" value="isPress(COLOR)" style="edgeStyle=orthogonalEdgeStyle;jumpSize=0;html=1;entryX=0;entryY=1;entryDx=0;entryDy=0;exitX=0;exitY=0.5;exitDx=0;exitDy=0;" parent="2bBxNphbNZEI2jO6cIMc-1" source="ydddiZWCEUi1fbIrvHAK-12" target="ydddiZWCEUi1fbIrvHAK-10" edge="1">
                    <mxGeometry x="0.0391" relative="1" as="geometry">
                        <Array as="points">
                            <mxPoint x="680" y="-520"/>
                            <mxPoint x="680" y="-812"/>
                        </Array>
                        <mxPoint x="732" y="-820" as="targetPoint"/>
                        <mxPoint as="offset"/>
                    </mxGeometry>
                </mxCell>
                <mxCell id="ydddiZWCEUi1fbIrvHAK-12" value="&lt;font style=&quot;font-size: 10px;&quot;&gt;MANUAL&lt;br&gt;RED&lt;br&gt;&lt;/font&gt;" style="ellipse;whiteSpace=wrap;html=1;aspect=fixed;fillColor=#f8cecc;strokeColor=#b85450;" parent="2bBxNphbNZEI2jO6cIMc-1" vertex="1">
                    <mxGeometry x="720" y="-560" width="80" height="80" as="geometry"/>
                </mxCell>
                <mxCell id="ydddiZWCEUi1fbIrvHAK-24" value="" style="endArrow=none;html=1;jumpSize=0;" parent="2bBxNphbNZEI2jO6cIMc-1" edge="1">
                    <mxGeometry width="50" height="50" relative="1" as="geometry">
                        <mxPoint x="600" y="-520" as="sourcePoint"/>
                        <mxPoint x="600" y="-840" as="targetPoint"/>
                    </mxGeometry>
                </mxCell>
                <mxCell id="6p3wwFVNoCFUn8sR4JEn-2" style="edgeStyle=none;html=1;exitX=1;exitY=0.5;exitDx=0;exitDy=0;" edge="1" parent="2bBxNphbNZEI2jO6cIMc-1" source="ydddiZWCEUi1fbIrvHAK-28" target="6p3wwFVNoCFUn8sR4JEn-1">
                    <mxGeometry relative="1" as="geometry">
                        <mxPoint x="1040.0002968506055" y="-847.7615630410082" as="sourcePoint"/>
                    </mxGeometry>
                </mxCell>
                <mxCell id="6p3wwFVNoCFUn8sR4JEn-14" style="edgeStyle=orthogonalEdgeStyle;html=1;entryX=0.5;entryY=0;entryDx=0;entryDy=0;" edge="1" parent="2bBxNphbNZEI2jO6cIMc-1" target="ydddiZWCEUi1fbIrvHAK-29">
                    <mxGeometry relative="1" as="geometry">
                        <mxPoint x="1000" y="-760" as="sourcePoint"/>
                    </mxGeometry>
                </mxCell>
                <mxCell id="6p3wwFVNoCFUn8sR4JEn-89" style="html=1;endArrow=classic;endFill=1;" edge="1" parent="2bBxNphbNZEI2jO6cIMc-1">
                    <mxGeometry relative="1" as="geometry">
                        <mxPoint x="972" y="-810" as="sourcePoint"/>
                        <mxPoint x="920" y="-810" as="targetPoint"/>
                    </mxGeometry>
                </mxCell>
                <mxCell id="ydddiZWCEUi1fbIrvHAK-28" value="&lt;span style=&quot;font-size: 10px;&quot;&gt;TUNING&amp;nbsp;&lt;br&gt;GREEN&lt;br&gt;&lt;/span&gt;" style="ellipse;whiteSpace=wrap;html=1;aspect=fixed;fillColor=#d5e8d4;strokeColor=#82b366;" parent="2bBxNphbNZEI2jO6cIMc-1" vertex="1">
                    <mxGeometry x="960" y="-880" width="80" height="80" as="geometry"/>
                </mxCell>
                <mxCell id="6p3wwFVNoCFUn8sR4JEn-35" style="edgeStyle=orthogonalEdgeStyle;html=1;entryX=0;entryY=0.5;entryDx=0;entryDy=0;" edge="1" parent="2bBxNphbNZEI2jO6cIMc-1" source="ydddiZWCEUi1fbIrvHAK-29" target="6p3wwFVNoCFUn8sR4JEn-32">
                    <mxGeometry relative="1" as="geometry"/>
                </mxCell>
                <mxCell id="6p3wwFVNoCFUn8sR4JEn-91" style="edgeStyle=none;html=1;endArrow=classic;endFill=1;" edge="1" parent="2bBxNphbNZEI2jO6cIMc-1" source="ydddiZWCEUi1fbIrvHAK-29">
                    <mxGeometry relative="1" as="geometry">
                        <mxPoint x="920" y="-680" as="targetPoint"/>
                    </mxGeometry>
                </mxCell>
                <mxCell id="ydddiZWCEUi1fbIrvHAK-29" value="&lt;span style=&quot;font-size: 10px;&quot;&gt;TUNNING&lt;br&gt;YELLOW&lt;br&gt;&lt;/span&gt;" style="ellipse;whiteSpace=wrap;html=1;aspect=fixed;fillColor=#fff2cc;strokeColor=#d6b656;" parent="2bBxNphbNZEI2jO6cIMc-1" vertex="1">
                    <mxGeometry x="960" y="-720" width="80" height="80" as="geometry"/>
                </mxCell>
                <mxCell id="6p3wwFVNoCFUn8sR4JEn-69" style="edgeStyle=none;html=1;" edge="1" parent="2bBxNphbNZEI2jO6cIMc-1" source="ydddiZWCEUi1fbIrvHAK-30" target="6p3wwFVNoCFUn8sR4JEn-60">
                    <mxGeometry relative="1" as="geometry"/>
                </mxCell>
                <mxCell id="6p3wwFVNoCFUn8sR4JEn-93" style="edgeStyle=none;html=1;endArrow=classic;endFill=1;" edge="1" parent="2bBxNphbNZEI2jO6cIMc-1" source="ydddiZWCEUi1fbIrvHAK-30">
                    <mxGeometry relative="1" as="geometry">
                        <mxPoint x="920" y="-520" as="targetPoint"/>
                    </mxGeometry>
                </mxCell>
                <mxCell id="ydddiZWCEUi1fbIrvHAK-30" value="&lt;font style=&quot;font-size: 10px;&quot;&gt;TUNNING&lt;br&gt;RED&lt;br&gt;&lt;/font&gt;" style="ellipse;whiteSpace=wrap;html=1;aspect=fixed;fillColor=#f8cecc;strokeColor=#b85450;" parent="2bBxNphbNZEI2jO6cIMc-1" vertex="1">
                    <mxGeometry x="960" y="-560" width="80" height="80" as="geometry"/>
                </mxCell>
                <mxCell id="6p3wwFVNoCFUn8sR4JEn-6" style="edgeStyle=none;html=1;entryX=1;entryY=1;entryDx=0;entryDy=0;exitX=0;exitY=1;exitDx=0;exitDy=0;" edge="1" parent="2bBxNphbNZEI2jO6cIMc-1" source="6p3wwFVNoCFUn8sR4JEn-0" target="6p3wwFVNoCFUn8sR4JEn-1">
                    <mxGeometry relative="1" as="geometry">
                        <mxPoint x="1241" y="-832" as="sourcePoint"/>
                    </mxGeometry>
                </mxCell>
                <mxCell id="6p3wwFVNoCFUn8sR4JEn-58" value="isPress(INC)" style="edgeLabel;html=1;align=center;verticalAlign=middle;resizable=0;points=[];" vertex="1" connectable="0" parent="6p3wwFVNoCFUn8sR4JEn-6">
                    <mxGeometry x="0.2837" y="3" relative="1" as="geometry">
                        <mxPoint x="18" y="-4" as="offset"/>
                    </mxGeometry>
                </mxCell>
                <mxCell id="6p3wwFVNoCFUn8sR4JEn-73" style="edgeStyle=none;html=1;" edge="1" parent="2bBxNphbNZEI2jO6cIMc-1" source="6p3wwFVNoCFUn8sR4JEn-0">
                    <mxGeometry relative="1" as="geometry">
                        <mxPoint x="1280" y="-760" as="targetPoint"/>
                    </mxGeometry>
                </mxCell>
                <mxCell id="6p3wwFVNoCFUn8sR4JEn-0" value="&lt;span style=&quot;font-size: 10px;&quot;&gt;Decrease&lt;br&gt;T_GREEN&lt;br&gt;&lt;/span&gt;" style="ellipse;whiteSpace=wrap;html=1;aspect=fixed;" vertex="1" parent="2bBxNphbNZEI2jO6cIMc-1">
                    <mxGeometry x="1240" y="-880" width="80" height="80" as="geometry"/>
                </mxCell>
                <mxCell id="6p3wwFVNoCFUn8sR4JEn-3" value="isPress(DEC)" style="edgeStyle=none;html=1;entryX=0;entryY=0;entryDx=0;entryDy=0;exitX=1;exitY=0;exitDx=0;exitDy=0;" edge="1" parent="2bBxNphbNZEI2jO6cIMc-1" source="6p3wwFVNoCFUn8sR4JEn-1" target="6p3wwFVNoCFUn8sR4JEn-0">
                    <mxGeometry relative="1" as="geometry"/>
                </mxCell>
                <mxCell id="6p3wwFVNoCFUn8sR4JEn-79" style="edgeStyle=none;html=1;" edge="1" parent="2bBxNphbNZEI2jO6cIMc-1" source="6p3wwFVNoCFUn8sR4JEn-1">
                    <mxGeometry relative="1" as="geometry">
                        <mxPoint x="1120" y="-760" as="targetPoint"/>
                    </mxGeometry>
                </mxCell>
                <mxCell id="6p3wwFVNoCFUn8sR4JEn-1" value="&lt;span style=&quot;font-size: 10px;&quot;&gt;Increase&lt;br&gt;T_GREEN&lt;br&gt;&lt;/span&gt;" style="ellipse;whiteSpace=wrap;html=1;aspect=fixed;" vertex="1" parent="2bBxNphbNZEI2jO6cIMc-1">
                    <mxGeometry x="1080" y="-880" width="80" height="80" as="geometry"/>
                </mxCell>
                <mxCell id="6p3wwFVNoCFUn8sR4JEn-8" value="isPress(DEC)" style="edgeStyle=none;html=1;exitX=1;exitY=0;exitDx=0;exitDy=0;entryX=1;entryY=1;entryDx=0;entryDy=0;" edge="1" parent="2bBxNphbNZEI2jO6cIMc-1" source="6p3wwFVNoCFUn8sR4JEn-0" target="6p3wwFVNoCFUn8sR4JEn-0">
                    <mxGeometry relative="1" as="geometry">
                        <Array as="points">
                            <mxPoint x="1350" y="-840"/>
                        </Array>
                    </mxGeometry>
                </mxCell>
                <mxCell id="6p3wwFVNoCFUn8sR4JEn-15" value="isPress(COLOR)" style="endArrow=none;html=1;" edge="1" parent="2bBxNphbNZEI2jO6cIMc-1">
                    <mxGeometry x="0.8571" width="50" height="50" relative="1" as="geometry">
                        <mxPoint x="1280" y="-760" as="sourcePoint"/>
                        <mxPoint x="1000" y="-760" as="targetPoint"/>
                        <mxPoint as="offset"/>
                    </mxGeometry>
                </mxCell>
                <mxCell id="6p3wwFVNoCFUn8sR4JEn-28" value="isPress(INC)" style="edgeStyle=orthogonalEdgeStyle;html=1;exitX=0;exitY=0.5;exitDx=0;exitDy=0;entryX=0.5;entryY=0;entryDx=0;entryDy=0;" edge="1" parent="2bBxNphbNZEI2jO6cIMc-1" source="6p3wwFVNoCFUn8sR4JEn-1" target="6p3wwFVNoCFUn8sR4JEn-1">
                    <mxGeometry relative="1" as="geometry">
                        <Array as="points">
                            <mxPoint x="1060" y="-880"/>
                        </Array>
                    </mxGeometry>
                </mxCell>
                <mxCell id="6p3wwFVNoCFUn8sR4JEn-29" value="isPress(INC)" style="edgeStyle=none;html=1;entryX=1;entryY=1;entryDx=0;entryDy=0;exitX=0;exitY=1;exitDx=0;exitDy=0;" edge="1" source="6p3wwFVNoCFUn8sR4JEn-30" target="6p3wwFVNoCFUn8sR4JEn-32" parent="2bBxNphbNZEI2jO6cIMc-1">
                    <mxGeometry relative="1" as="geometry"/>
                </mxCell>
                <mxCell id="6p3wwFVNoCFUn8sR4JEn-51" style="edgeStyle=orthogonalEdgeStyle;html=1;" edge="1" parent="2bBxNphbNZEI2jO6cIMc-1" source="6p3wwFVNoCFUn8sR4JEn-30">
                    <mxGeometry relative="1" as="geometry">
                        <mxPoint x="1280" y="-600" as="targetPoint"/>
                    </mxGeometry>
                </mxCell>
                <mxCell id="6p3wwFVNoCFUn8sR4JEn-30" value="&lt;span style=&quot;font-size: 10px;&quot;&gt;Decrease&lt;br&gt;T_YELLOW&lt;br&gt;&lt;/span&gt;" style="ellipse;whiteSpace=wrap;html=1;aspect=fixed;" vertex="1" parent="2bBxNphbNZEI2jO6cIMc-1">
                    <mxGeometry x="1240" y="-720" width="80" height="80" as="geometry"/>
                </mxCell>
                <mxCell id="6p3wwFVNoCFUn8sR4JEn-31" value="isPress(DEC)" style="edgeStyle=none;html=1;entryX=0;entryY=0;entryDx=0;entryDy=0;exitX=1;exitY=0;exitDx=0;exitDy=0;" edge="1" source="6p3wwFVNoCFUn8sR4JEn-32" target="6p3wwFVNoCFUn8sR4JEn-30" parent="2bBxNphbNZEI2jO6cIMc-1">
                    <mxGeometry relative="1" as="geometry"/>
                </mxCell>
                <mxCell id="6p3wwFVNoCFUn8sR4JEn-49" style="edgeStyle=orthogonalEdgeStyle;html=1;" edge="1" parent="2bBxNphbNZEI2jO6cIMc-1" source="6p3wwFVNoCFUn8sR4JEn-32">
                    <mxGeometry relative="1" as="geometry">
                        <mxPoint x="1120" y="-600" as="targetPoint"/>
                        <Array as="points">
                            <mxPoint x="1120" y="-620"/>
                            <mxPoint x="1120" y="-620"/>
                        </Array>
                    </mxGeometry>
                </mxCell>
                <mxCell id="6p3wwFVNoCFUn8sR4JEn-32" value="&lt;span style=&quot;font-size: 10px;&quot;&gt;Increase&lt;br&gt;T_YELLOW&lt;br&gt;&lt;/span&gt;" style="ellipse;whiteSpace=wrap;html=1;aspect=fixed;" vertex="1" parent="2bBxNphbNZEI2jO6cIMc-1">
                    <mxGeometry x="1080" y="-719.9999999999999" width="80" height="80" as="geometry"/>
                </mxCell>
                <mxCell id="6p3wwFVNoCFUn8sR4JEn-33" value="isPress(DEC)" style="edgeStyle=none;html=1;exitX=1;exitY=0;exitDx=0;exitDy=0;entryX=1;entryY=1;entryDx=0;entryDy=0;" edge="1" source="6p3wwFVNoCFUn8sR4JEn-30" target="6p3wwFVNoCFUn8sR4JEn-30" parent="2bBxNphbNZEI2jO6cIMc-1">
                    <mxGeometry relative="1" as="geometry">
                        <Array as="points">
                            <mxPoint x="1350" y="-680"/>
                        </Array>
                    </mxGeometry>
                </mxCell>
                <mxCell id="6p3wwFVNoCFUn8sR4JEn-34" value="isPress(INC)" style="edgeStyle=orthogonalEdgeStyle;html=1;exitX=0;exitY=0.5;exitDx=0;exitDy=0;entryX=0.5;entryY=0;entryDx=0;entryDy=0;" edge="1" source="6p3wwFVNoCFUn8sR4JEn-32" target="6p3wwFVNoCFUn8sR4JEn-32" parent="2bBxNphbNZEI2jO6cIMc-1">
                    <mxGeometry relative="1" as="geometry">
                        <Array as="points">
                            <mxPoint x="1060" y="-720"/>
                        </Array>
                    </mxGeometry>
                </mxCell>
                <mxCell id="6p3wwFVNoCFUn8sR4JEn-53" style="edgeStyle=orthogonalEdgeStyle;html=1;" edge="1" parent="2bBxNphbNZEI2jO6cIMc-1">
                    <mxGeometry relative="1" as="geometry">
                        <mxPoint x="1000" y="-600" as="sourcePoint"/>
                        <mxPoint x="1000" y="-560.42" as="targetPoint"/>
                    </mxGeometry>
                </mxCell>
                <mxCell id="6p3wwFVNoCFUn8sR4JEn-59" value="isPress(INC)" style="edgeStyle=orthogonalEdgeStyle;html=1;exitX=0;exitY=0.5;exitDx=0;exitDy=0;entryX=0.5;entryY=0;entryDx=0;entryDy=0;" edge="1" source="6p3wwFVNoCFUn8sR4JEn-60" target="6p3wwFVNoCFUn8sR4JEn-60" parent="2bBxNphbNZEI2jO6cIMc-1">
                    <mxGeometry relative="1" as="geometry">
                        <Array as="points">
                            <mxPoint x="1060" y="-560.42"/>
                        </Array>
                    </mxGeometry>
                </mxCell>
                <mxCell id="6p3wwFVNoCFUn8sR4JEn-60" value="&lt;span style=&quot;font-size: 10px;&quot;&gt;Increase&lt;br&gt;T_RED&lt;br&gt;&lt;/span&gt;" style="ellipse;whiteSpace=wrap;html=1;aspect=fixed;" vertex="1" parent="2bBxNphbNZEI2jO6cIMc-1">
                    <mxGeometry x="1080" y="-560.4199999999998" width="80" height="80" as="geometry"/>
                </mxCell>
                <mxCell id="6p3wwFVNoCFUn8sR4JEn-61" value="isPress(DEC)" style="edgeStyle=none;html=1;entryX=0;entryY=0;entryDx=0;entryDy=0;exitX=1;exitY=0;exitDx=0;exitDy=0;" edge="1" source="6p3wwFVNoCFUn8sR4JEn-60" target="6p3wwFVNoCFUn8sR4JEn-63" parent="2bBxNphbNZEI2jO6cIMc-1">
                    <mxGeometry relative="1" as="geometry"/>
                </mxCell>
                <mxCell id="6p3wwFVNoCFUn8sR4JEn-62" value="isPress(INC)" style="edgeStyle=none;html=1;entryX=1;entryY=1;entryDx=0;entryDy=0;exitX=0;exitY=1;exitDx=0;exitDy=0;" edge="1" source="6p3wwFVNoCFUn8sR4JEn-63" target="6p3wwFVNoCFUn8sR4JEn-60" parent="2bBxNphbNZEI2jO6cIMc-1">
                    <mxGeometry relative="1" as="geometry"/>
                </mxCell>
                <mxCell id="6p3wwFVNoCFUn8sR4JEn-63" value="&lt;span style=&quot;font-size: 10px;&quot;&gt;Decrease&lt;br&gt;T_RED&lt;br&gt;&lt;/span&gt;" style="ellipse;whiteSpace=wrap;html=1;aspect=fixed;" vertex="1" parent="2bBxNphbNZEI2jO6cIMc-1">
                    <mxGeometry x="1240" y="-560.42" width="80" height="80" as="geometry"/>
                </mxCell>
                <mxCell id="6p3wwFVNoCFUn8sR4JEn-64" value="isPress(DEC)" style="edgeStyle=none;html=1;exitX=1;exitY=0;exitDx=0;exitDy=0;entryX=1;entryY=1;entryDx=0;entryDy=0;" edge="1" source="6p3wwFVNoCFUn8sR4JEn-63" target="6p3wwFVNoCFUn8sR4JEn-63" parent="2bBxNphbNZEI2jO6cIMc-1">
                    <mxGeometry relative="1" as="geometry">
                        <Array as="points">
                            <mxPoint x="1350" y="-520.42"/>
                        </Array>
                    </mxGeometry>
                </mxCell>
                <mxCell id="6p3wwFVNoCFUn8sR4JEn-65" style="edgeStyle=orthogonalEdgeStyle;html=1;" edge="1" source="6p3wwFVNoCFUn8sR4JEn-63" parent="2bBxNphbNZEI2jO6cIMc-1">
                    <mxGeometry relative="1" as="geometry">
                        <mxPoint x="1280" y="-440" as="targetPoint"/>
                    </mxGeometry>
                </mxCell>
                <mxCell id="6p3wwFVNoCFUn8sR4JEn-66" value="isPress(COLOR)" style="endArrow=classic;html=1;endFill=1;entryX=0.5;entryY=0;entryDx=0;entryDy=0;" edge="1" parent="2bBxNphbNZEI2jO6cIMc-1" target="ydddiZWCEUi1fbIrvHAK-28">
                    <mxGeometry x="-0.5833" width="50" height="50" relative="1" as="geometry">
                        <mxPoint x="1120" y="-440" as="sourcePoint"/>
                        <mxPoint x="900" y="-600" as="targetPoint"/>
                        <Array as="points">
                            <mxPoint x="1400" y="-440"/>
                            <mxPoint x="1400" y="-900"/>
                            <mxPoint x="1000" y="-900"/>
                        </Array>
                        <mxPoint as="offset"/>
                    </mxGeometry>
                </mxCell>
                <mxCell id="6p3wwFVNoCFUn8sR4JEn-67" style="edgeStyle=orthogonalEdgeStyle;html=1;" edge="1" source="6p3wwFVNoCFUn8sR4JEn-60" parent="2bBxNphbNZEI2jO6cIMc-1">
                    <mxGeometry relative="1" as="geometry">
                        <mxPoint x="1120" y="-440" as="targetPoint"/>
                    </mxGeometry>
                </mxCell>
                <mxCell id="6p3wwFVNoCFUn8sR4JEn-80" value="isPress(COLOR)" style="endArrow=none;html=1;" edge="1" parent="2bBxNphbNZEI2jO6cIMc-1">
                    <mxGeometry x="-0.8571" width="50" height="50" relative="1" as="geometry">
                        <mxPoint x="1000" y="-600" as="sourcePoint"/>
                        <mxPoint x="1280" y="-600" as="targetPoint"/>
                        <mxPoint as="offset"/>
                    </mxGeometry>
                </mxCell>
                <mxCell id="6p3wwFVNoCFUn8sR4JEn-83" style="edgeStyle=orthogonalEdgeStyle;html=1;" edge="1" parent="2bBxNphbNZEI2jO6cIMc-1">
                    <mxGeometry relative="1" as="geometry">
                        <mxPoint x="840" y="-840.3200000000003" as="targetPoint"/>
                        <mxPoint x="800" y="-840.3200000000003" as="sourcePoint"/>
                    </mxGeometry>
                </mxCell>
                <mxCell id="6p3wwFVNoCFUn8sR4JEn-84" style="edgeStyle=orthogonalEdgeStyle;jumpSize=0;html=1;" edge="1" parent="2bBxNphbNZEI2jO6cIMc-1">
                    <mxGeometry relative="1" as="geometry">
                        <mxPoint x="840" y="-520.32" as="targetPoint"/>
                        <mxPoint x="800" y="-520.32" as="sourcePoint"/>
                    </mxGeometry>
                </mxCell>
                <mxCell id="6p3wwFVNoCFUn8sR4JEn-85" value="" style="endArrow=none;html=1;jumpSize=0;" edge="1" parent="2bBxNphbNZEI2jO6cIMc-1">
                    <mxGeometry width="50" height="50" relative="1" as="geometry">
                        <mxPoint x="840" y="-520.32" as="sourcePoint"/>
                        <mxPoint x="840" y="-840.32" as="targetPoint"/>
                    </mxGeometry>
                </mxCell>
                <mxCell id="6p3wwFVNoCFUn8sR4JEn-86" style="edgeStyle=orthogonalEdgeStyle;html=1;" edge="1" parent="2bBxNphbNZEI2jO6cIMc-1">
                    <mxGeometry relative="1" as="geometry">
                        <mxPoint x="840" y="-680.3200000000002" as="targetPoint"/>
                        <mxPoint x="800" y="-680.3200000000002" as="sourcePoint"/>
                    </mxGeometry>
                </mxCell>
                <mxCell id="6p3wwFVNoCFUn8sR4JEn-95" value="" style="endArrow=none;html=1;" edge="1" parent="2bBxNphbNZEI2jO6cIMc-1">
                    <mxGeometry width="50" height="50" relative="1" as="geometry">
                        <mxPoint x="920" y="-440" as="sourcePoint"/>
                        <mxPoint x="920" y="-810" as="targetPoint"/>
                    </mxGeometry>
                </mxCell>
                <mxCell id="6p3wwFVNoCFUn8sR4JEn-97" value="isPress(MODE)" style="endArrow=classic;html=1;entryX=0;entryY=0.5;entryDx=0;entryDy=0;" edge="1" parent="2bBxNphbNZEI2jO6cIMc-1" target="2bBxNphbNZEI2jO6cIMc-5">
                    <mxGeometry x="-0.9231" width="50" height="50" relative="1" as="geometry">
                        <mxPoint x="920" y="-440" as="sourcePoint"/>
                        <mxPoint x="970" y="-440" as="targetPoint"/>
                        <Array as="points">
                            <mxPoint x="400" y="-440"/>
                            <mxPoint x="400" y="-840"/>
                        </Array>
                        <mxPoint as="offset"/>
                    </mxGeometry>
                </mxCell>
                <mxCell id="6p3wwFVNoCFUn8sR4JEn-99" value="&lt;b&gt;&lt;font style=&quot;font-size: 15px;&quot;&gt;AUTO MODE&lt;/font&gt;&lt;/b&gt;" style="rounded=1;whiteSpace=wrap;html=1;fillColor=#f5f5f5;fontColor=#333333;strokeColor=#666666;dashed=1;" vertex="1" parent="2bBxNphbNZEI2jO6cIMc-1">
                    <mxGeometry x="440" y="-960" width="160" height="40" as="geometry"/>
                </mxCell>
                <mxCell id="6p3wwFVNoCFUn8sR4JEn-101" value="&lt;b&gt;&lt;font style=&quot;font-size: 15px;&quot;&gt;MANUAL MODE&lt;/font&gt;&lt;/b&gt;" style="rounded=1;whiteSpace=wrap;html=1;fillColor=#f5f5f5;fontColor=#333333;strokeColor=#666666;dashed=1;" vertex="1" parent="2bBxNphbNZEI2jO6cIMc-1">
                    <mxGeometry x="680" y="-960" width="160" height="40" as="geometry"/>
                </mxCell>
                <mxCell id="6p3wwFVNoCFUn8sR4JEn-102" value="&lt;b&gt;&lt;font style=&quot;font-size: 15px;&quot;&gt;TUNNING MODE&lt;/font&gt;&lt;/b&gt;" style="rounded=1;whiteSpace=wrap;html=1;fillColor=#f5f5f5;fontColor=#333333;strokeColor=#666666;dashed=1;" vertex="1" parent="2bBxNphbNZEI2jO6cIMc-1">
                    <mxGeometry x="920" y="-960" width="480" height="40" as="geometry"/>
                </mxCell>
                <mxCell id="6p3wwFVNoCFUn8sR4JEn-237" value="" style="group" vertex="1" connectable="0" parent="2bBxNphbNZEI2jO6cIMc-1">
                    <mxGeometry x="730" y="-400" width="360" height="180" as="geometry"/>
                </mxCell>
                <mxCell id="6p3wwFVNoCFUn8sR4JEn-205" value="" style="group" vertex="1" connectable="0" parent="6p3wwFVNoCFUn8sR4JEn-237">
                    <mxGeometry x="60" width="100" height="179.58000000000004" as="geometry"/>
                </mxCell>
                <mxCell id="6p3wwFVNoCFUn8sR4JEn-183" value="Auto mode" style="text;html=1;strokeColor=#666666;fillColor=#f5f5f5;align=center;verticalAlign=middle;whiteSpace=wrap;rounded=0;fontSize=12;fontStyle=1;fontColor=#333333;" vertex="1" parent="6p3wwFVNoCFUn8sR4JEn-205">
                    <mxGeometry width="100" height="20" as="geometry"/>
                </mxCell>
                <mxCell id="6p3wwFVNoCFUn8sR4JEn-196" value="&lt;i&gt;MODE&lt;/i&gt;" style="text;html=1;align=center;verticalAlign=middle;whiteSpace=wrap;rounded=0;fontSize=12;" vertex="1" parent="6p3wwFVNoCFUn8sR4JEn-205">
                    <mxGeometry y="20" width="100" height="40" as="geometry"/>
                </mxCell>
                <mxCell id="6p3wwFVNoCFUn8sR4JEn-202" value="&lt;i&gt;PEDES(0)&lt;/i&gt;" style="text;html=1;align=center;verticalAlign=middle;whiteSpace=wrap;rounded=0;fontSize=12;" vertex="1" parent="6p3wwFVNoCFUn8sR4JEn-205">
                    <mxGeometry y="59.58000000000004" width="100" height="40" as="geometry"/>
                </mxCell>
                <mxCell id="6p3wwFVNoCFUn8sR4JEn-203" value="&lt;i&gt;PEDES(1)&lt;/i&gt;" style="text;html=1;align=center;verticalAlign=middle;whiteSpace=wrap;rounded=0;fontSize=12;" vertex="1" parent="6p3wwFVNoCFUn8sR4JEn-205">
                    <mxGeometry y="99.58000000000004" width="100" height="40" as="geometry"/>
                </mxCell>
                <mxCell id="6p3wwFVNoCFUn8sR4JEn-204" value="&lt;i&gt;----&lt;/i&gt;" style="text;html=1;align=center;verticalAlign=middle;whiteSpace=wrap;rounded=0;fontSize=12;" vertex="1" parent="6p3wwFVNoCFUn8sR4JEn-205">
                    <mxGeometry y="139.58000000000004" width="100" height="40" as="geometry"/>
                </mxCell>
                <mxCell id="6p3wwFVNoCFUn8sR4JEn-234" value="" style="endArrow=none;dashed=1;html=1;strokeColor=#B3B3B3;fontSize=12;entryX=0;entryY=0;entryDx=0;entryDy=0;" edge="1" parent="6p3wwFVNoCFUn8sR4JEn-205">
                    <mxGeometry width="50" height="50" relative="1" as="geometry">
                        <mxPoint x="300" y="139.57999999999993" as="sourcePoint"/>
                        <mxPoint x="-60" y="139.57999999999993" as="targetPoint"/>
                    </mxGeometry>
                </mxCell>
                <mxCell id="6p3wwFVNoCFUn8sR4JEn-206" value="" style="group" vertex="1" connectable="0" parent="6p3wwFVNoCFUn8sR4JEn-237">
                    <mxGeometry width="60" height="180" as="geometry"/>
                </mxCell>
                <mxCell id="6p3wwFVNoCFUn8sR4JEn-182" value="Button" style="text;html=1;strokeColor=#666666;fillColor=#f5f5f5;align=center;verticalAlign=middle;whiteSpace=wrap;rounded=0;fontSize=12;fontStyle=1;fontColor=#333333;" vertex="1" parent="6p3wwFVNoCFUn8sR4JEn-206">
                    <mxGeometry width="60" height="20" as="geometry"/>
                </mxCell>
                <mxCell id="6p3wwFVNoCFUn8sR4JEn-186" value="0" style="text;html=1;align=center;verticalAlign=middle;whiteSpace=wrap;rounded=0;fontSize=12;fontStyle=1" vertex="1" parent="6p3wwFVNoCFUn8sR4JEn-206">
                    <mxGeometry y="20" width="60" height="40" as="geometry"/>
                </mxCell>
                <mxCell id="6p3wwFVNoCFUn8sR4JEn-187" value="1" style="text;html=1;strokeColor=none;fillColor=none;align=center;verticalAlign=middle;whiteSpace=wrap;rounded=0;fontSize=12;fontStyle=1" vertex="1" parent="6p3wwFVNoCFUn8sR4JEn-206">
                    <mxGeometry y="60" width="60" height="40" as="geometry"/>
                </mxCell>
                <mxCell id="6p3wwFVNoCFUn8sR4JEn-188" value="2" style="text;html=1;strokeColor=none;fillColor=none;align=center;verticalAlign=middle;whiteSpace=wrap;rounded=0;fontSize=12;fontStyle=1" vertex="1" parent="6p3wwFVNoCFUn8sR4JEn-206">
                    <mxGeometry y="100" width="60" height="40" as="geometry"/>
                </mxCell>
                <mxCell id="6p3wwFVNoCFUn8sR4JEn-189" value="3" style="text;html=1;strokeColor=none;fillColor=none;align=center;verticalAlign=middle;whiteSpace=wrap;rounded=0;fontSize=12;fontStyle=1" vertex="1" parent="6p3wwFVNoCFUn8sR4JEn-206">
                    <mxGeometry y="140" width="60" height="40" as="geometry"/>
                </mxCell>
                <mxCell id="6p3wwFVNoCFUn8sR4JEn-221" value="" style="endArrow=none;html=1;strokeColor=#666666;fontSize=12;entryX=0;entryY=0;entryDx=0;entryDy=0;" edge="1" parent="6p3wwFVNoCFUn8sR4JEn-206" target="6p3wwFVNoCFUn8sR4JEn-186">
                    <mxGeometry width="50" height="50" relative="1" as="geometry">
                        <mxPoint y="180" as="sourcePoint"/>
                        <mxPoint x="350" y="219.99999999999994" as="targetPoint"/>
                    </mxGeometry>
                </mxCell>
                <mxCell id="6p3wwFVNoCFUn8sR4JEn-207" value="" style="group" vertex="1" connectable="0" parent="6p3wwFVNoCFUn8sR4JEn-237">
                    <mxGeometry x="160" width="100" height="179.58000000000004" as="geometry"/>
                </mxCell>
                <mxCell id="6p3wwFVNoCFUn8sR4JEn-208" value="Manual mode" style="text;html=1;strokeColor=#666666;fillColor=#f5f5f5;align=center;verticalAlign=middle;whiteSpace=wrap;rounded=0;fontSize=12;fontStyle=1;fontColor=#333333;" vertex="1" parent="6p3wwFVNoCFUn8sR4JEn-207">
                    <mxGeometry width="100" height="20" as="geometry"/>
                </mxCell>
                <mxCell id="6p3wwFVNoCFUn8sR4JEn-209" value="&lt;i&gt;MODE&lt;/i&gt;" style="text;html=1;align=center;verticalAlign=middle;whiteSpace=wrap;rounded=0;fontSize=12;" vertex="1" parent="6p3wwFVNoCFUn8sR4JEn-207">
                    <mxGeometry y="20" width="100" height="40" as="geometry"/>
                </mxCell>
                <mxCell id="6p3wwFVNoCFUn8sR4JEn-210" value="&lt;i&gt;COLOR(0)&lt;/i&gt;" style="text;html=1;align=center;verticalAlign=middle;whiteSpace=wrap;rounded=0;fontSize=12;" vertex="1" parent="6p3wwFVNoCFUn8sR4JEn-207">
                    <mxGeometry y="59.58000000000004" width="100" height="40" as="geometry"/>
                </mxCell>
                <mxCell id="6p3wwFVNoCFUn8sR4JEn-211" value="&lt;i&gt;COLOR(1)&lt;/i&gt;" style="text;html=1;align=center;verticalAlign=middle;whiteSpace=wrap;rounded=0;fontSize=12;" vertex="1" parent="6p3wwFVNoCFUn8sR4JEn-207">
                    <mxGeometry y="99.58000000000004" width="100" height="40" as="geometry"/>
                </mxCell>
                <mxCell id="6p3wwFVNoCFUn8sR4JEn-212" value="&lt;i&gt;----&lt;/i&gt;" style="text;html=1;align=center;verticalAlign=middle;whiteSpace=wrap;rounded=0;fontSize=12;" vertex="1" parent="6p3wwFVNoCFUn8sR4JEn-207">
                    <mxGeometry y="139.58000000000004" width="100" height="40" as="geometry"/>
                </mxCell>
                <mxCell id="6p3wwFVNoCFUn8sR4JEn-224" value="" style="endArrow=none;html=1;strokeColor=#666666;fontSize=12;exitX=1;exitY=0;exitDx=0;exitDy=0;entryX=1;entryY=1;entryDx=0;entryDy=0;" edge="1" parent="6p3wwFVNoCFUn8sR4JEn-207">
                    <mxGeometry width="50" height="50" relative="1" as="geometry">
                        <mxPoint x="100" y="20" as="sourcePoint"/>
                        <mxPoint x="100" y="179.57999999999993" as="targetPoint"/>
                        <Array as="points">
                            <mxPoint x="100" y="100"/>
                        </Array>
                    </mxGeometry>
                </mxCell>
                <mxCell id="6p3wwFVNoCFUn8sR4JEn-227" value="" style="endArrow=none;html=1;strokeColor=#666666;fontSize=12;exitX=0;exitY=0;exitDx=0;exitDy=0;entryX=0;entryY=1;entryDx=0;entryDy=0;" edge="1" parent="6p3wwFVNoCFUn8sR4JEn-207" source="6p3wwFVNoCFUn8sR4JEn-209" target="6p3wwFVNoCFUn8sR4JEn-212">
                    <mxGeometry width="50" height="50" relative="1" as="geometry">
                        <mxPoint x="-310" y="230.42000000000002" as="sourcePoint"/>
                        <mxPoint x="50" y="229.99999999999994" as="targetPoint"/>
                    </mxGeometry>
                </mxCell>
                <mxCell id="6p3wwFVNoCFUn8sR4JEn-231" value="" style="endArrow=none;dashed=1;html=1;strokeColor=#B3B3B3;fontSize=12;entryX=0;entryY=0;entryDx=0;entryDy=0;" edge="1" parent="6p3wwFVNoCFUn8sR4JEn-207">
                    <mxGeometry width="50" height="50" relative="1" as="geometry">
                        <mxPoint x="200" y="99.57999999999998" as="sourcePoint"/>
                        <mxPoint x="-160" y="99.57999999999998" as="targetPoint"/>
                    </mxGeometry>
                </mxCell>
                <mxCell id="6p3wwFVNoCFUn8sR4JEn-213" value="" style="group" vertex="1" connectable="0" parent="6p3wwFVNoCFUn8sR4JEn-237">
                    <mxGeometry x="260" width="100" height="179.58000000000004" as="geometry"/>
                </mxCell>
                <mxCell id="6p3wwFVNoCFUn8sR4JEn-214" value="Tunning mode" style="text;html=1;strokeColor=#666666;fillColor=#f5f5f5;align=center;verticalAlign=middle;whiteSpace=wrap;rounded=0;fontSize=12;fontStyle=1;fontColor=#333333;" vertex="1" parent="6p3wwFVNoCFUn8sR4JEn-213">
                    <mxGeometry width="100" height="20" as="geometry"/>
                </mxCell>
                <mxCell id="6p3wwFVNoCFUn8sR4JEn-215" value="&lt;i&gt;MODE&lt;/i&gt;" style="text;html=1;align=center;verticalAlign=middle;whiteSpace=wrap;rounded=0;fontSize=12;" vertex="1" parent="6p3wwFVNoCFUn8sR4JEn-213">
                    <mxGeometry y="20" width="100" height="40" as="geometry"/>
                </mxCell>
                <mxCell id="6p3wwFVNoCFUn8sR4JEn-216" value="&lt;i&gt;COLOR&lt;/i&gt;" style="text;html=1;align=center;verticalAlign=middle;whiteSpace=wrap;rounded=0;fontSize=12;" vertex="1" parent="6p3wwFVNoCFUn8sR4JEn-213">
                    <mxGeometry y="59.58000000000004" width="100" height="40" as="geometry"/>
                </mxCell>
                <mxCell id="6p3wwFVNoCFUn8sR4JEn-217" value="&lt;i&gt;INC&lt;/i&gt;" style="text;html=1;align=center;verticalAlign=middle;whiteSpace=wrap;rounded=0;fontSize=12;" vertex="1" parent="6p3wwFVNoCFUn8sR4JEn-213">
                    <mxGeometry y="99.58000000000004" width="100" height="40" as="geometry"/>
                </mxCell>
                <mxCell id="6p3wwFVNoCFUn8sR4JEn-218" value="&lt;i&gt;DEC&lt;/i&gt;" style="text;html=1;align=center;verticalAlign=middle;whiteSpace=wrap;rounded=0;fontSize=12;" vertex="1" parent="6p3wwFVNoCFUn8sR4JEn-213">
                    <mxGeometry y="139.58000000000004" width="100" height="40" as="geometry"/>
                </mxCell>
                <mxCell id="6p3wwFVNoCFUn8sR4JEn-223" value="" style="endArrow=none;html=1;strokeColor=#666666;fontSize=12;exitX=1;exitY=0;exitDx=0;exitDy=0;entryX=1;entryY=1;entryDx=0;entryDy=0;" edge="1" parent="6p3wwFVNoCFUn8sR4JEn-213" source="6p3wwFVNoCFUn8sR4JEn-215" target="6p3wwFVNoCFUn8sR4JEn-218">
                    <mxGeometry width="50" height="50" relative="1" as="geometry">
                        <mxPoint x="-250" y="190" as="sourcePoint"/>
                        <mxPoint x="110" y="189.57999999999993" as="targetPoint"/>
                    </mxGeometry>
                </mxCell>
                <mxCell id="6p3wwFVNoCFUn8sR4JEn-220" value="" style="endArrow=none;html=1;strokeColor=#666666;fontSize=12;exitX=0;exitY=1;exitDx=0;exitDy=0;entryX=1;entryY=1;entryDx=0;entryDy=0;" edge="1" parent="6p3wwFVNoCFUn8sR4JEn-237" source="6p3wwFVNoCFUn8sR4JEn-189" target="6p3wwFVNoCFUn8sR4JEn-218">
                    <mxGeometry width="50" height="50" relative="1" as="geometry">
                        <mxPoint x="40" y="220" as="sourcePoint"/>
                        <mxPoint x="90" y="170" as="targetPoint"/>
                    </mxGeometry>
                </mxCell>
                <mxCell id="6p3wwFVNoCFUn8sR4JEn-229" value="" style="endArrow=none;html=1;strokeColor=#666666;fontSize=12;exitX=1;exitY=1;exitDx=0;exitDy=0;entryX=0;entryY=0;entryDx=0;entryDy=0;" edge="1" parent="6p3wwFVNoCFUn8sR4JEn-237" source="6p3wwFVNoCFUn8sR4JEn-189" target="6p3wwFVNoCFUn8sR4JEn-196">
                    <mxGeometry width="50" height="50" relative="1" as="geometry">
                        <mxPoint x="10" y="190" as="sourcePoint"/>
                        <mxPoint x="370" y="189.57999999999993" as="targetPoint"/>
                    </mxGeometry>
                </mxCell>
                <mxCell id="6p3wwFVNoCFUn8sR4JEn-230" value="" style="endArrow=none;dashed=1;html=1;strokeColor=#B3B3B3;fontSize=12;entryX=0;entryY=0;entryDx=0;entryDy=0;" edge="1" parent="6p3wwFVNoCFUn8sR4JEn-237" target="6p3wwFVNoCFUn8sR4JEn-187">
                    <mxGeometry width="50" height="50" relative="1" as="geometry">
                        <mxPoint x="360" y="60" as="sourcePoint"/>
                        <mxPoint y="250" as="targetPoint"/>
                    </mxGeometry>
                </mxCell>
            </root>
        </mxGraphModel>
    </diagram>
    <diagram name="DRAFT" id="aDjxt2g3kr6PN7XJJjFR">
        <mxGraphModel dx="1704" dy="3035" grid="1" gridSize="10" guides="1" tooltips="1" connect="1" arrows="1" fold="1" page="1" pageScale="1" pageWidth="850" pageHeight="1100" math="0" shadow="0">
            <root>
                <mxCell id="tkDUsNs5o3GeJrTgGCj--0"/>
                <mxCell id="tkDUsNs5o3GeJrTgGCj--1" parent="tkDUsNs5o3GeJrTgGCj--0"/>
                <mxCell id="19" value="INIT" style="endArrow=classic;html=1;entryX=0;entryY=0.5;entryDx=0;entryDy=0;" parent="tkDUsNs5o3GeJrTgGCj--1" target="10" edge="1">
                    <mxGeometry width="50" height="50" relative="1" as="geometry">
                        <mxPoint x="30" y="-680" as="sourcePoint"/>
                        <mxPoint x="60" y="-720" as="targetPoint"/>
                    </mxGeometry>
                </mxCell>
                <mxCell id="Y7g3cvkX75G8oK85BPLT-1" value="" style="rounded=1;whiteSpace=wrap;html=1;fillColor=none;movable=1;resizable=1;rotatable=1;deletable=1;editable=1;connectable=1;arcSize=18;" parent="tkDUsNs5o3GeJrTgGCj--1" vertex="1">
                    <mxGeometry x="80" y="-960" width="1370" height="520" as="geometry"/>
                </mxCell>
                <mxCell id="121" style="edgeStyle=orthogonalEdgeStyle;html=1;entryX=0;entryY=1;entryDx=0;entryDy=0;" parent="tkDUsNs5o3GeJrTgGCj--1" source="s_R602Umf4h5ecKpIBhV-0" target="s_R602Umf4h5ecKpIBhV-2" edge="1">
                    <mxGeometry relative="1" as="geometry">
                        <Array as="points">
                            <mxPoint x="240" y="-720"/>
                            <mxPoint x="317" y="-720"/>
                            <mxPoint x="317" y="-752"/>
                        </Array>
                    </mxGeometry>
                </mxCell>
                <mxCell id="s_R602Umf4h5ecKpIBhV-0" value="&lt;span style=&quot;font-size: 10px;&quot;&gt;TRAFFIC_0&lt;br&gt;GREEN&lt;br&gt;&lt;/span&gt;" style="ellipse;whiteSpace=wrap;html=1;aspect=fixed;fillColor=#d5e8d4;strokeColor=#82b366;" parent="tkDUsNs5o3GeJrTgGCj--1" vertex="1">
                    <mxGeometry x="200" y="-820" width="80" height="80" as="geometry"/>
                </mxCell>
                <mxCell id="123" style="edgeStyle=orthogonalEdgeStyle;html=1;exitX=0;exitY=0;exitDx=0;exitDy=0;entryX=0.434;entryY=0.023;entryDx=0;entryDy=0;entryPerimeter=0;" parent="tkDUsNs5o3GeJrTgGCj--1" source="s_R602Umf4h5ecKpIBhV-1" target="s_R602Umf4h5ecKpIBhV-0" edge="1">
                    <mxGeometry relative="1" as="geometry">
                        <Array as="points">
                            <mxPoint x="422" y="-860"/>
                            <mxPoint x="235" y="-860"/>
                        </Array>
                    </mxGeometry>
                </mxCell>
                <mxCell id="s_R602Umf4h5ecKpIBhV-1" value="&lt;font style=&quot;font-size: 10px;&quot;&gt;TRAFFIC_0&lt;br&gt;RED&lt;br&gt;&lt;/font&gt;" style="ellipse;whiteSpace=wrap;html=1;aspect=fixed;fillColor=#f8cecc;strokeColor=#b85450;" parent="tkDUsNs5o3GeJrTgGCj--1" vertex="1">
                    <mxGeometry x="410" y="-820" width="80" height="80" as="geometry"/>
                </mxCell>
                <mxCell id="106" style="edgeStyle=orthogonalEdgeStyle;html=1;entryX=1;entryY=0.75;entryDx=0;entryDy=0;" parent="tkDUsNs5o3GeJrTgGCj--1" source="LM09sQKcBD6q3bETgcub-10" target="LM09sQKcBD6q3bETgcub-18" edge="1">
                    <mxGeometry relative="1" as="geometry"/>
                </mxCell>
                <mxCell id="LM09sQKcBD6q3bETgcub-10" value="&lt;span style=&quot;font-size: 10px;&quot;&gt;Toggle color&lt;/span&gt;&lt;br style=&quot;border-color: var(--border-color); font-size: 10px;&quot;&gt;&lt;span style=&quot;font-size: 10px;&quot;&gt;TRAFFIC_1&lt;/span&gt;" style="ellipse;whiteSpace=wrap;html=1;aspect=fixed;" parent="tkDUsNs5o3GeJrTgGCj--1" vertex="1">
                    <mxGeometry x="620" y="-600" width="80" height="80" as="geometry"/>
                </mxCell>
                <mxCell id="122" style="edgeStyle=orthogonalEdgeStyle;html=1;entryX=0.5;entryY=1;entryDx=0;entryDy=0;" parent="tkDUsNs5o3GeJrTgGCj--1" source="s_R602Umf4h5ecKpIBhV-2" target="s_R602Umf4h5ecKpIBhV-1" edge="1">
                    <mxGeometry relative="1" as="geometry">
                        <Array as="points">
                            <mxPoint x="370" y="-720"/>
                            <mxPoint x="450" y="-720"/>
                        </Array>
                    </mxGeometry>
                </mxCell>
                <mxCell id="s_R602Umf4h5ecKpIBhV-2" value="&lt;span style=&quot;font-size: 10px;&quot;&gt;TRAFFIC_0&lt;br&gt;YELLOW&lt;br&gt;&lt;/span&gt;" style="ellipse;whiteSpace=wrap;html=1;aspect=fixed;fillColor=#fff2cc;strokeColor=#d6b656;" parent="tkDUsNs5o3GeJrTgGCj--1" vertex="1">
                    <mxGeometry x="305" y="-820" width="80" height="80" as="geometry"/>
                </mxCell>
                <mxCell id="LM09sQKcBD6q3bETgcub-40" value="isPressed(BTN2)" style="edgeStyle=orthogonalEdgeStyle;html=1;fontSize=12;entryX=0.5;entryY=0;entryDx=0;entryDy=0;" parent="tkDUsNs5o3GeJrTgGCj--1" source="LM09sQKcBD6q3bETgcub-18" target="LM09sQKcBD6q3bETgcub-10" edge="1">
                    <mxGeometry x="0.7647" y="10" relative="1" as="geometry">
                        <Array as="points">
                            <mxPoint x="660" y="-680"/>
                        </Array>
                        <mxPoint as="offset"/>
                        <mxPoint x="550" y="-680" as="sourcePoint"/>
                    </mxGeometry>
                </mxCell>
                <mxCell id="LM09sQKcBD6q3bETgcub-18" value="MANUAL MODE" style="rounded=0;whiteSpace=wrap;html=1;fillColor=#dae8fc;strokeColor=#6c8ebf;" parent="tkDUsNs5o3GeJrTgGCj--1" vertex="1">
                    <mxGeometry x="470" y="-710" width="100" height="60" as="geometry"/>
                </mxCell>
                <mxCell id="105" style="edgeStyle=orthogonalEdgeStyle;html=1;entryX=1;entryY=0.25;entryDx=0;entryDy=0;" parent="tkDUsNs5o3GeJrTgGCj--1" source="LM09sQKcBD6q3bETgcub-36" target="LM09sQKcBD6q3bETgcub-18" edge="1">
                    <mxGeometry relative="1" as="geometry">
                        <mxPoint x="550" y="-710" as="targetPoint"/>
                        <Array as="points">
                            <mxPoint x="590" y="-810"/>
                            <mxPoint x="590" y="-695"/>
                        </Array>
                    </mxGeometry>
                </mxCell>
                <mxCell id="LM09sQKcBD6q3bETgcub-36" value="&lt;span style=&quot;font-size: 10px;&quot;&gt;Toggle color&lt;br&gt;TRAFFIC_0&lt;br&gt;&lt;/span&gt;" style="ellipse;whiteSpace=wrap;html=1;aspect=fixed;" parent="tkDUsNs5o3GeJrTgGCj--1" vertex="1">
                    <mxGeometry x="620" y="-850" width="80" height="80" as="geometry"/>
                </mxCell>
                <mxCell id="LM09sQKcBD6q3bETgcub-41" value="isPressed(BTN1)" style="edgeStyle=orthogonalEdgeStyle;html=1;fontSize=12;exitX=1;exitY=0.5;exitDx=0;exitDy=0;" parent="tkDUsNs5o3GeJrTgGCj--1" source="LM09sQKcBD6q3bETgcub-18" target="LM09sQKcBD6q3bETgcub-36" edge="1">
                    <mxGeometry x="0.5791" relative="1" as="geometry">
                        <mxPoint as="offset"/>
                        <Array as="points">
                            <mxPoint x="660" y="-680"/>
                        </Array>
                        <mxPoint x="660" y="-790" as="targetPoint"/>
                    </mxGeometry>
                </mxCell>
                <mxCell id="30" style="edgeStyle=orthogonalEdgeStyle;html=1;endArrow=none;endFill=0;startArrow=classic;startFill=1;entryX=0.5;entryY=0;entryDx=0;entryDy=0;" parent="tkDUsNs5o3GeJrTgGCj--1" source="LM09sQKcBD6q3bETgcub-52" target="LM09sQKcBD6q3bETgcub-54" edge="1">
                    <mxGeometry relative="1" as="geometry">
                        <Array as="points">
                            <mxPoint x="1140" y="-900"/>
                            <mxPoint x="1390" y="-900"/>
                        </Array>
                    </mxGeometry>
                </mxCell>
                <mxCell id="65" value="isPressed(BTN1)" style="edgeLabel;html=1;align=center;verticalAlign=middle;resizable=0;points=[];fontSize=12;fontColor=none;" parent="30" vertex="1" connectable="0">
                    <mxGeometry x="0.5292" y="1" relative="1" as="geometry">
                        <mxPoint x="-51" y="-129" as="offset"/>
                    </mxGeometry>
                </mxCell>
                <mxCell id="62" value="&lt;span style=&quot;border-color: var(--border-color);&quot;&gt;isPressed(BTN3)&lt;/span&gt;" style="edgeStyle=orthogonalEdgeStyle;html=1;entryX=0.5;entryY=1;entryDx=0;entryDy=0;fontSize=12;fontColor=none;exitX=0.5;exitY=1;exitDx=0;exitDy=0;" parent="tkDUsNs5o3GeJrTgGCj--1" source="LM09sQKcBD6q3bETgcub-52" target="27" edge="1">
                    <mxGeometry x="0.0003" relative="1" as="geometry">
                        <mxPoint x="1120" y="-840" as="sourcePoint"/>
                        <Array as="points">
                            <mxPoint x="1120" y="-780"/>
                            <mxPoint x="920" y="-780"/>
                        </Array>
                        <mxPoint as="offset"/>
                    </mxGeometry>
                </mxCell>
                <mxCell id="63" value="&lt;span style=&quot;border-color: var(--border-color);&quot;&gt;isPressed(BTN2)&lt;/span&gt;" style="edgeStyle=orthogonalEdgeStyle;html=1;fontSize=12;fontColor=none;" parent="tkDUsNs5o3GeJrTgGCj--1" target="26" edge="1">
                    <mxGeometry x="0.1663" relative="1" as="geometry">
                        <mxPoint x="1120" y="-800" as="sourcePoint"/>
                        <Array as="points">
                            <mxPoint x="1120" y="-780"/>
                            <mxPoint x="1320" y="-780"/>
                        </Array>
                        <mxPoint as="offset"/>
                    </mxGeometry>
                </mxCell>
                <mxCell id="LM09sQKcBD6q3bETgcub-52" value="&lt;font style=&quot;font-size: 10px;&quot;&gt;TUN_YELLOW&lt;/font&gt;" style="ellipse;whiteSpace=wrap;html=1;aspect=fixed;fillColor=#fff2cc;strokeColor=#d6b656;" parent="tkDUsNs5o3GeJrTgGCj--1" vertex="1">
                    <mxGeometry x="1080" y="-880.0000000000001" width="80" height="80" as="geometry"/>
                </mxCell>
                <mxCell id="33" value="&lt;span style=&quot;font-size: 12px;&quot;&gt;isPressed(BTN1)&lt;/span&gt;" style="edgeStyle=orthogonalEdgeStyle;html=1;entryX=0.5;entryY=1;entryDx=0;entryDy=0;exitX=0.5;exitY=1;exitDx=0;exitDy=0;startArrow=classic;startFill=1;endArrow=none;endFill=0;" parent="tkDUsNs5o3GeJrTgGCj--1" source="LM09sQKcBD6q3bETgcub-54" target="LM09sQKcBD6q3bETgcub-56" edge="1">
                    <mxGeometry relative="1" as="geometry">
                        <mxPoint x="1259.9999444444056" y="-759.9333333333334" as="sourcePoint"/>
                        <Array as="points">
                            <mxPoint x="1390" y="-480"/>
                            <mxPoint x="850" y="-480"/>
                        </Array>
                    </mxGeometry>
                </mxCell>
                <mxCell id="50" value="isPressed(BTN3)" style="edgeStyle=orthogonalEdgeStyle;html=1;fontSize=12;fontColor=none;" parent="tkDUsNs5o3GeJrTgGCj--1" source="LM09sQKcBD6q3bETgcub-54" target="42" edge="1">
                    <mxGeometry x="0.2625" relative="1" as="geometry">
                        <Array as="points">
                            <mxPoint x="1300.03" y="-620.0199999999999"/>
                            <mxPoint x="1300.03" y="-670.0199999999999"/>
                        </Array>
                        <mxPoint as="offset"/>
                    </mxGeometry>
                </mxCell>
                <mxCell id="51" value="isPressed(BTN2)" style="edgeStyle=orthogonalEdgeStyle;html=1;fontSize=12;fontColor=none;" parent="tkDUsNs5o3GeJrTgGCj--1" source="LM09sQKcBD6q3bETgcub-54" target="43" edge="1">
                    <mxGeometry x="0.2651" relative="1" as="geometry">
                        <Array as="points">
                            <mxPoint x="1299.99" y="-619.9699999999999"/>
                            <mxPoint x="1299.99" y="-569.9699999999999"/>
                        </Array>
                        <mxPoint as="offset"/>
                    </mxGeometry>
                </mxCell>
                <mxCell id="LM09sQKcBD6q3bETgcub-54" value="&lt;font style=&quot;font-size: 10px;&quot;&gt;TUN_GREEN&lt;/font&gt;" style="ellipse;whiteSpace=wrap;html=1;aspect=fixed;fillColor=#d5e8d4;strokeColor=#82b366;" parent="tkDUsNs5o3GeJrTgGCj--1" vertex="1">
                    <mxGeometry x="1350.03" y="-660.2599999999999" width="80" height="80" as="geometry"/>
                </mxCell>
                <mxCell id="LM09sQKcBD6q3bETgcub-58" value="isPressed(BTN1)" style="edgeStyle=orthogonalEdgeStyle;html=1;exitX=0.5;exitY=0;exitDx=0;exitDy=0;fontSize=12;endArrow=none;endFill=0;startArrow=classic;startFill=1;" parent="tkDUsNs5o3GeJrTgGCj--1" source="LM09sQKcBD6q3bETgcub-56" target="LM09sQKcBD6q3bETgcub-52" edge="1">
                    <mxGeometry x="0.0862" y="10" relative="1" as="geometry">
                        <mxPoint as="offset"/>
                        <Array as="points">
                            <mxPoint x="850" y="-900"/>
                            <mxPoint x="1100" y="-900"/>
                        </Array>
                    </mxGeometry>
                </mxCell>
                <mxCell id="LM09sQKcBD6q3bETgcub-56" value="&lt;font style=&quot;font-size: 10px;&quot;&gt;TUN_RED&lt;/font&gt;" style="ellipse;whiteSpace=wrap;html=1;aspect=fixed;fillColor=#f8cecc;strokeColor=#b85450;" parent="tkDUsNs5o3GeJrTgGCj--1" vertex="1">
                    <mxGeometry x="809.9599999999999" y="-660.2099999999999" width="80" height="80" as="geometry"/>
                </mxCell>
                <mxCell id="24" style="edgeStyle=orthogonalEdgeStyle;html=1;exitX=0.5;exitY=0;exitDx=0;exitDy=0;" parent="tkDUsNs5o3GeJrTgGCj--1" source="LM09sQKcBD6q3bETgcub-60" target="LM09sQKcBD6q3bETgcub-56" edge="1">
                    <mxGeometry relative="1" as="geometry">
                        <Array as="points">
                            <mxPoint x="1070.03" y="-730.0199999999999"/>
                            <mxPoint x="880.03" y="-730.0199999999999"/>
                        </Array>
                    </mxGeometry>
                </mxCell>
                <mxCell id="LM09sQKcBD6q3bETgcub-60" value="&lt;span style=&quot;font-size: 10px;&quot;&gt;Decrease&lt;br&gt;T_RED&lt;br&gt;&lt;/span&gt;" style="ellipse;whiteSpace=wrap;html=1;aspect=fixed;" parent="tkDUsNs5o3GeJrTgGCj--1" vertex="1">
                    <mxGeometry x="1030.03" y="-710.1199999999999" width="80" height="80" as="geometry"/>
                </mxCell>
                <mxCell id="LM09sQKcBD6q3bETgcub-63" value="isPressed(BTN3)" style="html=1;fontSize=12;edgeStyle=orthogonalEdgeStyle;" parent="tkDUsNs5o3GeJrTgGCj--1" source="LM09sQKcBD6q3bETgcub-56" target="LM09sQKcBD6q3bETgcub-60" edge="1">
                    <mxGeometry x="0.1993" relative="1" as="geometry">
                        <Array as="points">
                            <mxPoint x="940.03" y="-620.0199999999999"/>
                            <mxPoint x="940.03" y="-670.0199999999999"/>
                        </Array>
                        <mxPoint as="offset"/>
                    </mxGeometry>
                </mxCell>
                <mxCell id="25" style="edgeStyle=orthogonalEdgeStyle;html=1;exitX=0.5;exitY=1;exitDx=0;exitDy=0;" parent="tkDUsNs5o3GeJrTgGCj--1" source="LM09sQKcBD6q3bETgcub-68" target="LM09sQKcBD6q3bETgcub-56" edge="1">
                    <mxGeometry relative="1" as="geometry">
                        <mxPoint x="878.2442712474617" y="-581.775728752538" as="targetPoint"/>
                        <Array as="points">
                            <mxPoint x="1069.99" y="-509.96999999999997"/>
                            <mxPoint x="877.99" y="-509.96999999999997"/>
                        </Array>
                    </mxGeometry>
                </mxCell>
                <mxCell id="LM09sQKcBD6q3bETgcub-68" value="&lt;span style=&quot;font-size: 10px;&quot;&gt;Increase&lt;br&gt;T_RED&lt;br&gt;&lt;/span&gt;" style="ellipse;whiteSpace=wrap;html=1;aspect=fixed;" parent="tkDUsNs5o3GeJrTgGCj--1" vertex="1">
                    <mxGeometry x="1030.03" y="-609.9699999999999" width="80" height="80" as="geometry"/>
                </mxCell>
                <mxCell id="LM09sQKcBD6q3bETgcub-69" value="isPressed(BTN2)" style="html=1;fontSize=12;edgeStyle=elbowEdgeStyle;exitX=1;exitY=0.5;exitDx=0;exitDy=0;entryX=0;entryY=0.5;entryDx=0;entryDy=0;" parent="tkDUsNs5o3GeJrTgGCj--1" source="LM09sQKcBD6q3bETgcub-56" target="LM09sQKcBD6q3bETgcub-68" edge="1">
                    <mxGeometry x="0.0539" relative="1" as="geometry">
                        <Array as="points">
                            <mxPoint x="940.03" y="-600.0199999999999"/>
                        </Array>
                        <mxPoint as="offset"/>
                        <mxPoint x="1029.99" y="-579.9699999999999" as="targetPoint"/>
                    </mxGeometry>
                </mxCell>
                <mxCell id="11" value="isPressed(BTN0)" style="edgeStyle=orthogonalEdgeStyle;html=1;exitX=0.5;exitY=1;exitDx=0;exitDy=0;entryX=0.5;entryY=1;entryDx=0;entryDy=0;" parent="tkDUsNs5o3GeJrTgGCj--1" source="10" target="LM09sQKcBD6q3bETgcub-18" edge="1">
                    <mxGeometry relative="1" as="geometry">
                        <Array as="points">
                            <mxPoint x="160" y="-480"/>
                            <mxPoint x="520" y="-480"/>
                        </Array>
                        <mxPoint x="200" y="-650" as="sourcePoint"/>
                    </mxGeometry>
                </mxCell>
                <mxCell id="119" style="edgeStyle=orthogonalEdgeStyle;html=1;entryX=0.5;entryY=1;entryDx=0;entryDy=0;" parent="tkDUsNs5o3GeJrTgGCj--1" source="10" target="108" edge="1">
                    <mxGeometry relative="1" as="geometry">
                        <Array as="points">
                            <mxPoint x="180" y="-500"/>
                            <mxPoint x="240" y="-500"/>
                        </Array>
                    </mxGeometry>
                </mxCell>
                <mxCell id="120" style="edgeStyle=orthogonalEdgeStyle;html=1;exitX=0.75;exitY=0;exitDx=0;exitDy=0;entryX=0.5;entryY=0;entryDx=0;entryDy=0;" parent="tkDUsNs5o3GeJrTgGCj--1" source="10" target="s_R602Umf4h5ecKpIBhV-1" edge="1">
                    <mxGeometry relative="1" as="geometry">
                        <Array as="points">
                            <mxPoint x="185" y="-880"/>
                            <mxPoint x="450" y="-880"/>
                        </Array>
                    </mxGeometry>
                </mxCell>
                <mxCell id="10" value="AUTO MODE" style="rounded=0;whiteSpace=wrap;html=1;fillColor=#dae8fc;strokeColor=#6c8ebf;" parent="tkDUsNs5o3GeJrTgGCj--1" vertex="1">
                    <mxGeometry x="110" y="-710" width="100" height="60" as="geometry"/>
                </mxCell>
                <mxCell id="16" value="isPressed(BTN0)" style="edgeStyle=orthogonalEdgeStyle;html=1;entryX=0.5;entryY=0;entryDx=0;entryDy=0;" parent="tkDUsNs5o3GeJrTgGCj--1" source="13" target="10" edge="1">
                    <mxGeometry relative="1" as="geometry">
                        <Array as="points">
                            <mxPoint x="730" y="-900"/>
                            <mxPoint x="160" y="-900"/>
                        </Array>
                    </mxGeometry>
                </mxCell>
                <mxCell id="69" style="edgeStyle=orthogonalEdgeStyle;html=1;exitX=0.75;exitY=0;exitDx=0;exitDy=0;fontSize=12;fontColor=none;startArrow=none;startFill=0;endArrow=classic;endFill=1;" parent="tkDUsNs5o3GeJrTgGCj--1" source="13" target="LM09sQKcBD6q3bETgcub-56" edge="1">
                    <mxGeometry relative="1" as="geometry">
                        <Array as="points">
                            <mxPoint x="775" y="-760"/>
                            <mxPoint x="820" y="-760"/>
                        </Array>
                    </mxGeometry>
                </mxCell>
                <mxCell id="13" value="TUNING MODE" style="rounded=0;whiteSpace=wrap;html=1;fillColor=#dae8fc;strokeColor=#6c8ebf;" parent="tkDUsNs5o3GeJrTgGCj--1" vertex="1">
                    <mxGeometry x="700" y="-720" width="100" height="60" as="geometry"/>
                </mxCell>
                <mxCell id="15" value="isPressed(BTN0)" style="edgeStyle=orthogonalEdgeStyle;html=1;exitX=0.75;exitY=1;exitDx=0;exitDy=0;" parent="tkDUsNs5o3GeJrTgGCj--1" source="LM09sQKcBD6q3bETgcub-18" target="13" edge="1">
                    <mxGeometry relative="1" as="geometry">
                        <Array as="points">
                            <mxPoint x="545" y="-480"/>
                            <mxPoint x="750" y="-480"/>
                        </Array>
                        <mxPoint x="850" y="-650.1399999999999" as="targetPoint"/>
                    </mxGeometry>
                </mxCell>
                <mxCell id="61" style="edgeStyle=orthogonalEdgeStyle;html=1;fontSize=12;fontColor=none;" parent="tkDUsNs5o3GeJrTgGCj--1" source="26" target="LM09sQKcBD6q3bETgcub-52" edge="1">
                    <mxGeometry relative="1" as="geometry">
                        <mxPoint x="1190" y="-840" as="targetPoint"/>
                        <Array as="points">
                            <mxPoint x="1310" y="-840"/>
                        </Array>
                    </mxGeometry>
                </mxCell>
                <mxCell id="26" value="&lt;span style=&quot;font-size: 10px;&quot;&gt;Increase&lt;br&gt;T_YELLOW&lt;br&gt;&lt;/span&gt;" style="ellipse;whiteSpace=wrap;html=1;aspect=fixed;" parent="tkDUsNs5o3GeJrTgGCj--1" vertex="1">
                    <mxGeometry x="1280" y="-880.0000000000001" width="80" height="80" as="geometry"/>
                </mxCell>
                <mxCell id="60" style="edgeStyle=orthogonalEdgeStyle;html=1;fontSize=12;fontColor=none;" parent="tkDUsNs5o3GeJrTgGCj--1" source="27" target="LM09sQKcBD6q3bETgcub-52" edge="1">
                    <mxGeometry relative="1" as="geometry">
                        <mxPoint x="1049.93" y="-840" as="targetPoint"/>
                        <Array as="points">
                            <mxPoint x="930" y="-840"/>
                        </Array>
                    </mxGeometry>
                </mxCell>
                <mxCell id="27" value="&lt;span style=&quot;font-size: 10px;&quot;&gt;Decrease&lt;br&gt;T_YELLOW&lt;br&gt;&lt;/span&gt;" style="ellipse;whiteSpace=wrap;html=1;aspect=fixed;" parent="tkDUsNs5o3GeJrTgGCj--1" vertex="1">
                    <mxGeometry x="880" y="-880.0000000000001" width="80" height="80" as="geometry"/>
                </mxCell>
                <mxCell id="67" style="edgeStyle=orthogonalEdgeStyle;html=1;fontSize=12;fontColor=none;startArrow=none;startFill=0;endArrow=classic;endFill=1;" parent="tkDUsNs5o3GeJrTgGCj--1" source="42" target="LM09sQKcBD6q3bETgcub-54" edge="1">
                    <mxGeometry relative="1" as="geometry">
                        <Array as="points">
                            <mxPoint x="1169.99" y="-729.9699999999999"/>
                            <mxPoint x="1359.99" y="-729.9699999999999"/>
                        </Array>
                    </mxGeometry>
                </mxCell>
                <mxCell id="42" value="&lt;span style=&quot;font-size: 10px;&quot;&gt;Decrease&lt;br&gt;T_GREEN&lt;br&gt;&lt;/span&gt;" style="ellipse;whiteSpace=wrap;html=1;aspect=fixed;" parent="tkDUsNs5o3GeJrTgGCj--1" vertex="1">
                    <mxGeometry x="1130.03" y="-710.1199999999999" width="80" height="80" as="geometry"/>
                </mxCell>
                <mxCell id="52" style="edgeStyle=orthogonalEdgeStyle;html=1;fontSize=12;fontColor=none;entryX=0;entryY=1;entryDx=0;entryDy=0;" parent="tkDUsNs5o3GeJrTgGCj--1" source="43" target="LM09sQKcBD6q3bETgcub-54" edge="1">
                    <mxGeometry relative="1" as="geometry">
                        <Array as="points">
                            <mxPoint x="1169.99" y="-509.96999999999997"/>
                            <mxPoint x="1361.99" y="-509.96999999999997"/>
                        </Array>
                    </mxGeometry>
                </mxCell>
                <mxCell id="43" value="&lt;span style=&quot;font-size: 10px;&quot;&gt;Increase&lt;br&gt;T_GREEN&lt;br&gt;&lt;/span&gt;" style="ellipse;whiteSpace=wrap;html=1;aspect=fixed;" parent="tkDUsNs5o3GeJrTgGCj--1" vertex="1">
                    <mxGeometry x="1130.03" y="-609.9699999999999" width="80" height="80" as="geometry"/>
                </mxCell>
                <mxCell id="87" value="" style="group" parent="tkDUsNs5o3GeJrTgGCj--1" vertex="1" connectable="0">
                    <mxGeometry x="160" y="-1200" width="560" height="200" as="geometry"/>
                </mxCell>
                <mxCell id="Y7g3cvkX75G8oK85BPLT-9" value="" style="rounded=1;whiteSpace=wrap;html=1;fillColor=none;" parent="87" vertex="1">
                    <mxGeometry width="560" height="200" as="geometry"/>
                </mxCell>
                <mxCell id="Y7g3cvkX75G8oK85BPLT-0" value="&lt;span style=&quot;font-size: 10px;&quot;&gt;Pedestrian&lt;br&gt;OFF&lt;br&gt;&lt;/span&gt;" style="ellipse;whiteSpace=wrap;html=1;aspect=fixed;" parent="87" vertex="1">
                    <mxGeometry x="30" y="70" width="80" height="80" as="geometry"/>
                </mxCell>
                <mxCell id="Y7g3cvkX75G8oK85BPLT-2" value="&lt;span style=&quot;font-size: 10px;&quot;&gt;Pedestrian&lt;br&gt;ON&lt;br&gt;&lt;/span&gt;" style="ellipse;whiteSpace=wrap;html=1;aspect=fixed;fillColor=#eeeeee;strokeColor=#36393d;" parent="87" vertex="1">
                    <mxGeometry x="200" y="70" width="80" height="80" as="geometry"/>
                </mxCell>
                <mxCell id="Y7g3cvkX75G8oK85BPLT-5" value="isPressed(BTN2)" style="edgeStyle=none;html=1;" parent="87" source="Y7g3cvkX75G8oK85BPLT-0" target="Y7g3cvkX75G8oK85BPLT-2" edge="1">
                    <mxGeometry x="0.0085" relative="1" as="geometry">
                        <mxPoint as="offset"/>
                    </mxGeometry>
                </mxCell>
                <mxCell id="Y7g3cvkX75G8oK85BPLT-3" value="&lt;span style=&quot;font-size: 10px;&quot;&gt;PERMIT&lt;br&gt;WALK&lt;br&gt;&lt;/span&gt;" style="ellipse;whiteSpace=wrap;html=1;aspect=fixed;fillColor=#f8cecc;strokeColor=#b85450;" parent="87" vertex="1">
                    <mxGeometry x="400" y="110" width="80" height="80" as="geometry"/>
                </mxCell>
                <mxCell id="Y7g3cvkX75G8oK85BPLT-6" value="&lt;span style=&quot;font-size: 12px;&quot;&gt;TRAFFIC_0&lt;br&gt;!=AUTO_RED&lt;/span&gt;" style="edgeStyle=orthogonalEdgeStyle;html=1;entryX=0;entryY=0.5;entryDx=0;entryDy=0;" parent="87" source="Y7g3cvkX75G8oK85BPLT-2" target="Y7g3cvkX75G8oK85BPLT-3" edge="1">
                    <mxGeometry relative="1" as="geometry"/>
                </mxCell>
                <mxCell id="73" value="TRAFFIC_0!=AUTO_RED" style="edgeStyle=orthogonalEdgeStyle;html=1;entryX=0.5;entryY=0;entryDx=0;entryDy=0;fontSize=12;fontColor=none;startArrow=none;startFill=0;endArrow=classic;endFill=1;" parent="87" source="Y7g3cvkX75G8oK85BPLT-4" target="Y7g3cvkX75G8oK85BPLT-2" edge="1">
                    <mxGeometry x="0.7778" relative="1" as="geometry">
                        <Array as="points">
                            <mxPoint x="440" y="10"/>
                            <mxPoint x="240" y="10"/>
                        </Array>
                        <mxPoint as="offset"/>
                    </mxGeometry>
                </mxCell>
                <mxCell id="Y7g3cvkX75G8oK85BPLT-4" value="&lt;span style=&quot;font-size: 10px;&quot;&gt;ALLOW&lt;br&gt;WALK&lt;br&gt;&lt;/span&gt;" style="ellipse;whiteSpace=wrap;html=1;aspect=fixed;fillColor=#d5e8d4;strokeColor=#82b366;" parent="87" vertex="1">
                    <mxGeometry x="400" y="20" width="80" height="80" as="geometry"/>
                </mxCell>
                <mxCell id="71" value="TRAFFIC_0==&lt;br&gt;AUTO_RED" style="edgeStyle=orthogonalEdgeStyle;html=1;entryX=0;entryY=0.5;entryDx=0;entryDy=0;fontSize=12;fontColor=none;startArrow=none;startFill=0;endArrow=classic;endFill=1;" parent="87" source="Y7g3cvkX75G8oK85BPLT-2" target="Y7g3cvkX75G8oK85BPLT-4" edge="1">
                    <mxGeometry relative="1" as="geometry"/>
                </mxCell>
                <mxCell id="72" value="TRAFFIC_0&lt;br&gt;==AUTO_RED" style="edgeStyle=orthogonalEdgeStyle;html=1;entryX=1;entryY=0.5;entryDx=0;entryDy=0;fontSize=12;fontColor=none;startArrow=none;startFill=0;endArrow=classic;endFill=1;" parent="87" source="Y7g3cvkX75G8oK85BPLT-3" target="Y7g3cvkX75G8oK85BPLT-4" edge="1">
                    <mxGeometry relative="1" as="geometry">
                        <Array as="points">
                            <mxPoint x="510" y="150"/>
                            <mxPoint x="510" y="60"/>
                        </Array>
                    </mxGeometry>
                </mxCell>
                <mxCell id="88" value="" style="group" parent="tkDUsNs5o3GeJrTgGCj--1" vertex="1" connectable="0">
                    <mxGeometry x="800" y="-1200" width="560" height="200" as="geometry"/>
                </mxCell>
                <mxCell id="89" value="" style="rounded=1;whiteSpace=wrap;html=1;fillColor=none;" parent="88" vertex="1">
                    <mxGeometry width="560" height="200" as="geometry"/>
                </mxCell>
                <mxCell id="90" value="&lt;span style=&quot;font-size: 10px;&quot;&gt;Pedestrian&lt;br&gt;OFF&lt;br&gt;&lt;/span&gt;" style="ellipse;whiteSpace=wrap;html=1;aspect=fixed;" parent="88" vertex="1">
                    <mxGeometry x="30" y="70" width="80" height="80" as="geometry"/>
                </mxCell>
                <mxCell id="91" value="&lt;span style=&quot;font-size: 10px;&quot;&gt;Pedestrian&lt;br&gt;ON&lt;br&gt;&lt;/span&gt;" style="ellipse;whiteSpace=wrap;html=1;aspect=fixed;fillColor=#eeeeee;strokeColor=#36393d;" parent="88" vertex="1">
                    <mxGeometry x="200" y="70" width="80" height="80" as="geometry"/>
                </mxCell>
                <mxCell id="92" value="isPressed(BTN3)" style="edgeStyle=none;html=1;" parent="88" source="90" target="91" edge="1">
                    <mxGeometry x="0.0085" relative="1" as="geometry">
                        <mxPoint as="offset"/>
                    </mxGeometry>
                </mxCell>
                <mxCell id="93" value="&lt;span style=&quot;font-size: 10px;&quot;&gt;PERMIT&lt;br&gt;WALK&lt;br&gt;&lt;/span&gt;" style="ellipse;whiteSpace=wrap;html=1;aspect=fixed;fillColor=#f8cecc;strokeColor=#b85450;" parent="88" vertex="1">
                    <mxGeometry x="400" y="110" width="80" height="80" as="geometry"/>
                </mxCell>
                <mxCell id="94" value="&lt;span style=&quot;font-size: 12px;&quot;&gt;TRAFFIC_1&lt;/span&gt;&lt;span style=&quot;font-size: 12px;&quot;&gt;!=&lt;br&gt;AUTO_RED&lt;/span&gt;" style="edgeStyle=orthogonalEdgeStyle;html=1;entryX=0;entryY=0.5;entryDx=0;entryDy=0;" parent="88" source="91" target="93" edge="1">
                    <mxGeometry relative="1" as="geometry"/>
                </mxCell>
                <mxCell id="95" value="TRAFFIC_1!=AUTO_RED" style="edgeStyle=orthogonalEdgeStyle;html=1;entryX=0.5;entryY=0;entryDx=0;entryDy=0;fontSize=12;fontColor=none;startArrow=none;startFill=0;endArrow=classic;endFill=1;" parent="88" source="96" target="91" edge="1">
                    <mxGeometry x="0.7778" relative="1" as="geometry">
                        <Array as="points">
                            <mxPoint x="440" y="10"/>
                            <mxPoint x="240" y="10"/>
                        </Array>
                        <mxPoint as="offset"/>
                    </mxGeometry>
                </mxCell>
                <mxCell id="96" value="&lt;span style=&quot;font-size: 10px;&quot;&gt;ALLOW&lt;br&gt;WALK&lt;br&gt;&lt;/span&gt;" style="ellipse;whiteSpace=wrap;html=1;aspect=fixed;fillColor=#d5e8d4;strokeColor=#82b366;" parent="88" vertex="1">
                    <mxGeometry x="400" y="20" width="80" height="80" as="geometry"/>
                </mxCell>
                <mxCell id="97" value="TRAFFIC_1==&lt;br&gt;AUTO_RED" style="edgeStyle=orthogonalEdgeStyle;html=1;entryX=0;entryY=0.5;entryDx=0;entryDy=0;fontSize=12;fontColor=none;startArrow=none;startFill=0;endArrow=classic;endFill=1;" parent="88" source="91" target="96" edge="1">
                    <mxGeometry relative="1" as="geometry"/>
                </mxCell>
                <mxCell id="98" value="TRAFFIC_1&lt;br&gt;==AUTO_RED" style="edgeStyle=orthogonalEdgeStyle;html=1;entryX=1;entryY=0.5;entryDx=0;entryDy=0;fontSize=12;fontColor=none;startArrow=none;startFill=0;endArrow=classic;endFill=1;" parent="88" source="93" target="96" edge="1">
                    <mxGeometry relative="1" as="geometry">
                        <Array as="points">
                            <mxPoint x="510" y="150"/>
                            <mxPoint x="510" y="60"/>
                        </Array>
                    </mxGeometry>
                </mxCell>
                <mxCell id="124" style="edgeStyle=orthogonalEdgeStyle;html=1;entryX=0;entryY=0;entryDx=0;entryDy=0;" parent="tkDUsNs5o3GeJrTgGCj--1" source="108" target="109" edge="1">
                    <mxGeometry relative="1" as="geometry">
                        <Array as="points">
                            <mxPoint x="240" y="-640"/>
                            <mxPoint x="317" y="-640"/>
                            <mxPoint x="317" y="-600"/>
                        </Array>
                    </mxGeometry>
                </mxCell>
                <mxCell id="108" value="&lt;span style=&quot;font-size: 10px;&quot;&gt;TRAFFIC_1&lt;br&gt;GREEN&lt;br&gt;&lt;/span&gt;" style="ellipse;whiteSpace=wrap;html=1;aspect=fixed;fillColor=#d5e8d4;strokeColor=#82b366;" parent="tkDUsNs5o3GeJrTgGCj--1" vertex="1">
                    <mxGeometry x="200" y="-600" width="80" height="80" as="geometry"/>
                </mxCell>
                <mxCell id="109" value="&lt;span style=&quot;font-size: 10px;&quot;&gt;TRAFFIC_1&lt;br&gt;YELLOW&lt;br&gt;&lt;/span&gt;" style="ellipse;whiteSpace=wrap;html=1;aspect=fixed;fillColor=#fff2cc;strokeColor=#d6b656;" parent="tkDUsNs5o3GeJrTgGCj--1" vertex="1">
                    <mxGeometry x="305" y="-600" width="80" height="80" as="geometry"/>
                </mxCell>
                <mxCell id="110" value="&lt;font style=&quot;font-size: 10px;&quot;&gt;TRAFFIC_0&lt;br&gt;RED&lt;br&gt;&lt;/font&gt;" style="ellipse;whiteSpace=wrap;html=1;aspect=fixed;fillColor=#f8cecc;strokeColor=#b85450;" parent="tkDUsNs5o3GeJrTgGCj--1" vertex="1">
                    <mxGeometry x="410" y="-600" width="80" height="80" as="geometry"/>
                </mxCell>
            </root>
        </mxGraphModel>
    </diagram>
</mxfile>